<?xml version="1.0" encoding="utf-8"?>
<!-- Generator: Adobe Illustrator 25.2.0, SVG Export Plug-In . SVG Version: 6.00 Build 0)  -->
<svg version="1.1" id="Warstwa_1" xmlns="http://www.w3.org/2000/svg" xmlns:xlink="http://www.w3.org/1999/xlink" x="0px" y="0px"
	 viewBox="0 0 430 430" style="enable-background:new 0 0 430 430;" xml:space="preserve">
<style type="text/css">
	.st0{fill:#121331;}
	.st1{fill:#F24C00;}
	.st2{opacity:0.5;fill:#F24C00;}
	.st3{fill:#92140C;}
	.st4{fill:#4bb3fd;}
	.st5{fill:#3A3347;}
	.st6{fill:#ebe6ef;}
	.st7{fill:#646E78;}
	.st8{opacity:0.5;fill:#ebe6ef;}
	.st9{opacity:0.5;fill:#3A3347;}
	.st10{fill:#FFC738;}
	.st11{fill:#B26836;}
	.st12{fill:#F28BA8;}
	.st13{opacity:0.5;fill:#F28BA8;}
	.st14{opacity:0.5;fill:#B26836;}
	.st15{opacity:0.5;fill:#646E78;}
	.st16{opacity:0.5;fill:#4bb3fd;}
	.st17{fill:#2CA58D;}
	.st18{opacity:0.5;fill:#2CA58D;}
	.st19{opacity:0.5;fill:#FFC738;}
	.st20{fill:#F9C9C0;}
	.st21{fill:none;stroke:#121331;stroke-width:7;stroke-linecap:round;stroke-linejoin:round;stroke-miterlimit:10;}
	.st22{opacity:0.5;}
	.st23{opacity:0.2;fill:#2CA58D;}
	.st24{fill:none;stroke:#F24C00;stroke-width:10;stroke-linecap:round;stroke-linejoin:round;stroke-miterlimit:10;}
	.st25{fill:none;stroke:#2CA58D;stroke-width:10;stroke-linecap:round;stroke-linejoin:round;stroke-miterlimit:10;}
	.st26{fill:none;stroke:#121331;stroke-width:10;stroke-linecap:round;stroke-linejoin:round;stroke-miterlimit:10;}
	.st27{fill:none;stroke:#ebe6ef;stroke-width:7;stroke-linecap:round;stroke-linejoin:round;stroke-miterlimit:10;}
</style>
<path class="st6" d="M374.17,112.6v204.82c0,1.66-1.34,3-3,3H58.83c-1.66,0-3-1.34-3-3V112.58c0-0.83,0.34-1.58,0.88-2.12
	c0.54-0.55,1.29-0.88,2.12-0.88h17.13l295.21,0.02c0.83,0,1.58,0.33,2.12,0.88C373.83,111.02,374.17,111.77,374.17,112.6z"/>
<path class="st4" d="M373.29,110.48L241.01,243.21c-5.9,5.9-13.29,9.39-20.95,10.47c-11.11,1.57-22.79-1.92-31.33-10.47
	L56.71,110.46l2.12-0.88h17.13l295.21,0.02C372,109.6,372.75,109.93,373.29,110.48z"/>
<path class="st16" d="M56.71,110.46l132.02,132.75c8.54,8.55,20.22,12.04,31.33,10.47l-144.1-144.1H58.83L56.71,110.46z"/>
<path class="st8" d="M166.42,220.78L55.83,313.32v-12.86l84.03-73.84c5.91-5.13,12.34-9.52,19.15-13.19L166.42,220.78z"/>
<path class="st8" d="M374.17,300.52v12.81l-110.61-92.55l7.42-7.35c6.81,3.67,13.24,8.06,19.15,13.19l84.02,73.84L374.17,300.52z"/>
</svg>
