<svg xmlns="http://www.w3.org/2000/svg" viewBox="0 0 430 430">
  <g style="isolation: isolate">
    <g id="Warstwa_1" data-name="Warstwa 1">
      <g>
        <path d="M300.59,307.12a158.28,158.28,0,0,0-49-7.57H178.41a158.28,158.28,0,0,0-49,7.57c-24,7.81-37.23,18.69-37.23,30.63s13.27,22.87,37.37,30.67c22.88,7.42,53.22,11.5,85.45,11.5s62.57-4.08,85.45-11.5c24.1-7.8,37.37-18.7,37.37-30.67S324.6,314.93,300.59,307.12Z" style="fill: #2ca58d"/>
        <path d="M129.55,368.42c17.7,5.74,39.89,9.47,63.95,10.87l24.94-39.21L100.78,353.76C107.11,359.31,116.82,364.3,129.55,368.42Z" style="fill: #2ca58d;opacity: 0.25;mix-blend-mode: multiply"/>
        <path d="M313.4,141.1h0a98.43,98.43,0,1,0-183,56.12l82,142.86a3.5,3.5,0,0,0,6.07,0l81.92-142.69a95.5,95.5,0,0,0,13-56.29Zm-56.91,7.25a41.1,41.1,0,1,1-41.1-41.1A41.15,41.15,0,0,1,256.49,148.35Z" style="fill: #4bb3fd"/>
        <path d="M146.18,194.75A97.74,97.74,0,0,1,175.55,76.48a97.53,97.53,0,0,1,75.93-19.14c.59.1,1.17.22,1.76.33a98.18,98.18,0,0,0-105.06,19,96.82,96.82,0,0,0-17.83,120.56l79.77,138.94Z" style="fill: #4bb3fd;opacity: 0.5;mix-blend-mode: multiply"/>
      </g>
    </g>
  </g>
</svg>
