<svg xmlns="http://www.w3.org/2000/svg" viewBox="0 0 430 430">
  <defs>
    <style>
      .cls-1 {
        isolation: isolate;
      }

      .cls-2, .cls-3 {
        fill: #ebe6ef;
      }

      .cls-3 {
        mix-blend-mode: multiply;
        opacity: 0.5;
      }

      .cls-4 {
        fill: #f9c9c0;
      }

      .cls-5 {
        fill: #646e78;
      }

      .cls-6 {
        fill: #090b2e;
      }
    </style>
  </defs>
  <g class="cls-1">
    <g id="Warstwa_1" data-name="Warstwa 1">
      <g>
        <path class="cls-2" d="M205.42,174.21a21.23,21.23,0,0,0-6.85,41.35l48.81,16.8v54.39a23.14,23.14,0,0,1-23.09,23.09h-106a23.14,23.14,0,0,1-23.09-23.09V64.62a23.15,23.15,0,0,1,23.09-23.08h106a23.15,23.15,0,0,1,23.09,23.08V189l-35.22-13.69C209.93,174.57,204.63,174.23,205.42,174.21Z"/>
        <path class="cls-3" d="M224.29,309.84h-106a23.15,23.15,0,0,1-23.08-23.09V64.62s10.88,165,25.25,209.05C131,306.17,224.29,309.84,224.29,309.84Z"/>
        <path class="cls-4" d="M316.83,302.38l-88.47,59.18-55.9-51.7h51.83a23.15,23.15,0,0,0,23.09-23.09V232.38l-48.81-16.8a21.23,21.23,0,0,1,6.85-41.35c-.79,0,4.51.35,6.74,1.11L247.38,189l32.49,11.33s0,0,.05,0a21.13,21.13,0,0,1,10.57,13L306,268.84Z"/>
        <polygon class="cls-5" points="316.82 302.37 334.82 329.26 246.37 388.46 228.36 361.55 316.82 302.37"/>
        <path class="cls-6" d="M190.61,72.15H152a3.5,3.5,0,0,1,0-7h38.66a3.5,3.5,0,0,1,0,7Z"/>
        <path class="cls-6" d="M337.73,327.32,320,300.87l-10.64-33.06-15.53-55.36a24.82,24.82,0,0,0-12.24-15.14,4.06,4.06,0,0,0-.6-.27h0l-30.14-10.51V64.62A26.61,26.61,0,0,0,224.29,38h-106A26.61,26.61,0,0,0,91.68,64.62V286.75a26.62,26.62,0,0,0,26.59,26.59h52.82l54.59,50.5,17.78,26.57a3.52,3.52,0,0,0,2.23,1.49,4,4,0,0,0,.68.06,3.49,3.49,0,0,0,1.95-.59l88.45-59.2A3.5,3.5,0,0,0,337.73,327.32Zm-239-40.57V64.62A19.61,19.61,0,0,1,118.27,45h106a19.61,19.61,0,0,1,19.59,19.58V183.9l-30.45-11.83-.14-.06a35.57,35.57,0,0,0-6.76-1.17l-.27,0a3.86,3.86,0,0,0-.84-.1,24.73,24.73,0,0,0-8,48.16l46.45,16v51.89a19.61,19.61,0,0,1-19.59,19.59h-106A19.61,19.61,0,0,1,98.68,286.75Zm125.61,26.59a26.62,26.62,0,0,0,26.59-26.59V232.36a3.51,3.51,0,0,0-2.36-3.31l-48.83-16.8a17.74,17.74,0,0,1,5.47-34.54,5.77,5.77,0,0,0,.62.09l.49.06a39.84,39.84,0,0,1,4.18.62l.52.14,35.14,13.66.12.05,32.22,11.23a17.52,17.52,0,0,1,8.67,10.78l15.55,55.43a.56.56,0,0,0,0,.12l10,31-84,56.18L181.4,313.34Zm23,70.27-14.12-21.1,82.65-55.28L330,328.3Z"/>
      </g>
    </g>
  </g>
</svg>
